/* XPM */
static char *_5581e396f614f298efa9f37ba59eb51ZMpQ26kBYTALihFx[] = {
/* columns rows colors chars-per-pixel */
"50 50 96 2 ",
"   c None",
".  c #392F0F",
"X  c #2F3D0E",
"o  c #560614",
"O  c #570614",
"+  c #580615",
"@  c #590615",
"#  c #5B0616",
"$  c #5C0616",
"%  c #5D0717",
"&  c #5E0717",
"*  c #481911",
"=  c #600718",
"-  c #600819",
";  c #620819",
":  c #63081A",
">  c #64091B",
",  c #66091B",
"<  c #66091C",
"1  c #67091C",
"2  c #740C22",
"3  c #770D24",
"4  c #2D400D",
"5  c #27490C",
"6  c #22510C",
"7  c #2A580E",
"8  c #315E10",
"9  c #335F10",
"0  c #346010",
"q  c #366311",
"w  c #3D6A13",
"e  c #436D14",
"r  c #497116",
"t  c #4A7216",
"y  c #4B7316",
"u  c #4B7616",
"i  c #4C7417",
"p  c #800E27",
"a  c #810F28",
"s  c #820E28",
"d  c #84102A",
"f  c #85102A",
"g  c #88102B",
"h  c #8B112D",
"j  c #8D122E",
"k  c #921330",
"l  c #961332",
"z  c #981433",
"x  c #9B1535",
"c  c #9C1535",
"v  c #9D1535",
"b  c #A01536",
"n  c #A11636",
"m  c #A21636",
"M  c #A31637",
"N  c #A81638",
"B  c #AC1638",
"V  c #AE1739",
"C  c #B01739",
"Z  c #B11739",
"A  c #B8183B",
"S  c #BA183B",
"D  c #BC183C",
"F  c #BE183C",
"G  c #C2183D",
"H  c #C7193E",
"J  c #C8193E",
"K  c #CB193E",
"L  c #CD193F",
"P  c #D01A40",
"I  c #D71A41",
"U  c #D91A41",
"Y  c #E01B43",
"T  c #E11B43",
"R  c #5D871B",
"E  c #5F8A1C",
"W  c #658F1D",
"Q  c #6B8E1F",
"!  c #6A941F",
"~  c #709920",
"^  c #749C21",
"/  c #7E9E24",
"(  c #84A325",
")  c #8DAA28",
"_  c #8FB628",
"`  c #9AB52B",
"'  c #9CB72C",
"]  c #97BD2B",
"[  c #9EC42C",
"{  c #9FC52D",
"}  c #A0C52D",
"|  c #A0C62D",
" . c #A1C72D",
".. c #B0D431",
"X. c #BDE035",
"o. c #C1E436",
/* pixels */
"                                                                                                    ",
"                                                                                                    ",
"                                                                                                    ",
"                                                                                                    ",
"                            6 6 6 6 6 6 6 6 6 6 6 6                 6 6 6 6 6 6 6 6 6               ",
"                            6 6 6 6 6 6 6 6 6 6 6 6                 6 6 6 6 6 6 6 6 6               ",
"                              6 6 Q ( ( ( ( ( ( ( / 6 6         6 6 ^ | { | { { w 6 6               ",
"                            6 6 6 ) ' ' ' ' ' ' ' ` 6 6 6       6 6 _ o.o.o.o.o.i 6 6               ",
"                            6 6 6 ) ' ' ' ' ' ' ' ` 6 6 6       6 6 _ o.o.o.o.o.u 6 6               ",
"                                  e t t i i i ' ' ` 6 6 6 6 6 W ....X.o.o.] E R                     ",
"                                  6 6 6 6 6 6 ' ' ` 6 6 6 6 6 ~ o.o.o.o.o.! 6 6                     ",
"                                  6 6 6 6 6 6 ' ' ` 6 6 6 6 6 ~ o.o.o.o.o.! 6 6                     ",
"                                              0 8 8       6 6 7 q q q q q                           ",
"                                              6 6 6       6 6 6 6 6 6 6 6                           ",
"                                              6 6 6       6 6 6 6 6 6 6 6                           ",
"                                        6 6 6             6 6 6                                     ",
"                                        6 6 6             6 6 6                                     ",
"                                        6 6 6             6 6 6                                     ",
"                                  6 6 6                   6 6 6                                     ",
"                                  6 6 6                   6 6 6                                     ",
"                                  4 5 5                   6 6 6                                     ",
"                        o o o o o o o o o o o             6 6 6                                     ",
"                        o o o o o o o o o o o             6 6 6                                     ",
"                      : 1 1 1 1 1 1 1 1 1 1 1           * X X .                                     ",
"                  o o > c c x x x x x x x x x o o o o o o o o o o o o o o                           ",
"                  o o > c c x x x x x x x x x o o o o o o o o o O O o o o                           ",
"            o o = 2 2 d x x x x x x x x x x x o o o 2 2 2 2 2 2 2 2 2 2 2 : o o                     ",
"            o o % x c x x x x x x x x x x x x o o o c x x x x x x x x x x & o o                     ",
"            o o % x x x x x x x x x x x x x x o o o x x x x x x x x x x x : o o                     ",
"            o o % x x V L L Z x x x x x > % % p a d x x x x x x x x x x x h a a % O o               ",
"            o o % x x A T T S x x x x x + o o z x x x x x x x x x x x x x x x x + o o               ",
"            o o % x x S T T S x x x x x + o o z x x x x x x x x x x x x x x c c + o o               ",
"            o o % x x A T T S x x x x x + o o z x m I I H x x x x x x x x x x x + o o               ",
"            o o % x x A T T S x x x x x + o o z x m T T P x x x x x x x x x x x + o o               ",
"            o o % x x S T T S x x x x x + o o z x m T T P x x x x x x x x x x x + o o               ",
"            o o % x x c c c H U T V x x + o o z x m T T P x x x x x x x x x x x + o o               ",
"            o o % x x c c x G T T Z x x + o o z x m T T P x x x x x x x x x x x + o o               ",
"            o o % k k l c x F U U V x x + o o z x m U U K m N c x x x x x x x x + o o               ",
"                  o o > x x x x x x x x + o o z x x x x V T T H x x x x x x x x + + o               ",
"                  o o 1 x x x x x x x c + o + x x x x x B T T H x x x x x x x x + O o               ",
"                  o o 1 d d d d d d d d + O o 3 d d x x N P P F x x x x x j d d % O o               ",
"                        o o O + o o + O O O o o + o x x x x x x x x x x x : o o                     ",
"                        o O O O o o o o O O O o o o x x x x x x x x x x x & o o                     ",
"                        o O O O o o o o O O o o o + 3 3 3 3 3 3 3 3 3 3 3 : o o                     ",
"                                                    o o o o o o o o o o o                           ",
"                                                    o o o o o o o o o o o                           ",
"                                                                                                    ",
"                                                                                                    ",
"                                                                                                    ",
"                                                                                                    "
};
