/* XPM */
static char *_873b92bdef744fa8412e86699e60decWubTGNiZmfYWeLeE[] = {
/* columns rows colors chars-per-pixel */
"50 50 219 2 ",
"   c None",
".  c #010000",
"X  c #0A0506",
"o  c #0D0907",
"O  c #0C0C0D",
"+  c #0E060B",
"@  c #130B0C",
"#  c #11070C",
"$  c #18120E",
"%  c #1E0E16",
"&  c #190D14",
"*  c #1C1410",
"=  c #161618",
"-  c #0F1011",
";  c #220F1A",
":  c #210F15",
">  c #231A14",
",  c #26121C",
"<  c #2A131E",
"1  c #291B19",
"2  c #281715",
"3  c #3D1D1E",
"4  c #2E231D",
"5  c #32221B",
"6  c #1D1F21",
"7  c #2D1422",
"8  c #2E1D20",
"9  c #321625",
"0  c #3C1B2D",
"q  c #371A26",
"w  c #1F2124",
"e  c #27282A",
"r  c #392628",
"t  c #36383B",
"y  c #332C34",
"u  c #431E32",
"i  c #401D2F",
"p  c #4C2526",
"a  c #412C24",
"s  c #482729",
"d  c #49352A",
"f  c #543A2E",
"g  c #4D2139",
"h  c #4A2232",
"j  c #54253E",
"k  c #572A3A",
"l  c #4D3D32",
"z  c #5A3737",
"x  c #57292E",
"c  c #602E2F",
"v  c #673637",
"b  c #76383D",
"n  c #5B4538",
"m  c #4E4138",
"M  c #664637",
"N  c #67483B",
"B  c #5E2946",
"V  c #572842",
"C  c #5A3B50",
"Z  c #642C4B",
"A  c #672E4A",
"S  c #67354A",
"D  c #6B2F50",
"F  c #6D3052",
"G  c #723255",
"H  c #763458",
"J  c #7A375D",
"K  c #7D3B46",
"L  c #3F4248",
"P  c #40444A",
"I  c #4D5158",
"U  c #57565A",
"Y  c #554C52",
"T  c #6C4749",
"R  c #724943",
"E  c #6A5243",
"W  c #7B5543",
"Q  c #775646",
"!  c #795A59",
"~  c #625E5C",
"^  c #7B604E",
"/  c #565B63",
"(  c #595B64",
")  c #685E67",
"_  c #5E646C",
"`  c #736175",
"'  c #6F6F74",
"]  c #853D56",
"[  c #833F41",
"{  c #893D66",
"}  c #8B3E69",
"|  c #843B63",
" . c #92454A",
".. c #9D4B4E",
"X. c #8A5F4B",
"o. c #865949",
"O. c #864659",
"+. c #9E4A5C",
"@. c #954A4D",
"#. c #A85058",
"$. c #BA585E",
"%. c #866350",
"&. c #976954",
"*. c #8F6B56",
"=. c #A26D59",
"-. c #A8745B",
";. c #B0795F",
":. c #91416D",
">. c #9A4762",
",. c #994473",
"<. c #9A5C78",
"1. c #8C4E65",
"2. c #A24A69",
"3. c #A6497C",
"4. c #A84A7E",
"5. c #A44976",
"6. c #AA5A75",
"7. c #BB587B",
"8. c #B35F65",
"9. c #9E7B68",
"0. c #847A73",
"q. c #8C706D",
"w. c #A87A64",
"e. c #B87D65",
"r. c #A86276",
"t. c #BE7573",
"y. c #B16C73",
"u. c #C65E62",
"i. c #C55B77",
"p. c #CD616A",
"a. c #D66576",
"s. c #CE746D",
"d. c #E76D79",
"f. c #E97379",
"g. c #F5757A",
"h. c #AC836A",
"j. c #A5826B",
"k. c #B88369",
"l. c #AB8875",
"z. c #B98B7C",
"x. c #C28569",
"c. c #C68A6E",
"v. c #CC856D",
"b. c #CA8E71",
"n. c #C78978",
"m. c #CC9275",
"M. c #C6967A",
"N. c #D29A7C",
"B. c #D3987B",
"V. c #DD8B79",
"C. c #747B85",
"Z. c #AC4C81",
"A. c #B14E85",
"S. c #B45185",
"D. c #BA5386",
"F. c #B55088",
"G. c #B95987",
"H. c #B96C8C",
"J. c #A97097",
"K. c #9B7392",
"L. c #C85B84",
"P. c #D46182",
"I. c #D86481",
"U. c #C57A86",
"Y. c #E16880",
"T. c #7D848F",
"R. c gray53",
"E. c #818994",
"W. c #89909D",
"Q. c #A79399",
"!. c #BAA597",
"~. c #949BA7",
"^. c #8F97A4",
"/. c #A997B0",
"(. c #9DA6B4",
"). c #99A1AF",
"_. c #A4A8B9",
"`. c #B3B2B2",
"'. c #A4A5A6",
"]. c #C78B84",
"[. c #D69F80",
"{. c #D89E8A",
"}. c #CDA185",
"|. c #D5A283",
" X c #D9A485",
".X c #DEAB8B",
"XX c #D6A68B",
"oX c #CEA896",
"OX c #E1AD8D",
"+X c #E9A68E",
"@X c #E5B493",
"#X c #E8B796",
"$X c #E9BA9B",
"%X c #E3B89E",
"&X c #E0AF91",
"*X c #DDB7A5",
"=X c #C8BBB5",
"-X c #EF8F83",
";X c #CCC1BC",
":X c #EDCBB4",
">X c #F0CFB9",
",X c #F1D2BD",
"<X c #EDC6AB",
"1X c #B2BDCC",
"2X c #B0B1C4",
"3X c #BAC5D6",
"4X c #C6C6C8",
"5X c #C0CBDC",
"6X c #C2C8D2",
"7X c #D2C8C2",
"8X c #ECDCD2",
"9X c #F6E5D9",
"0X c #E9E1DE",
"qX c #DFE1E7",
"wX c #E9EAEA",
"eX c #E2E6ED",
"rX c #F7EBE3",
"tX c #F7F6F6",
"yX c #CCD4E2",
/* pixels */
"                                                                                                    ",
"                                                                                                    ",
"                                                                                                    ",
"                                                                                                    ",
"                                                                                                    ",
"                                                                                                    ",
"                      . . . .                         . . . . . .                                   ",
"                    X . . . .                       . . . . . . . .                                 ",
"                  % 0 u h 0 u 7                   7 0 h x x x c c p 2                               ",
"                . < Z } :.:.J g # . . . . . . . . q D } 2.$.$.u.u.[ 3 .                             ",
"                . 7 G F.4.,.{ V 1 * * > * * > > > V { F.i.p.a.f.g...3 .                             ",
"                . 7 G F.:.F V v M M M M M M N E ! *.6.Z.+.[  .u.g...3 .                             ",
"                . 7 G F.H q 2 M =.;.;.;.w.;.k.b.|.].H.Z.A 7 p ..g.@.q .                             ",
"                . < B J S s d o.e.x.x.x.c.m.B.OX@X].6.J B 0 k +.d. .3 .                             ",
"                    9 0 z R o.=.k.x.x.x.m.[.OX&X@Xl.T u k G } 5.L.] 9 .                             ",
"                    X o l &.x.x.x.x.e.k.N.&X#X#X@X9.d % k ,.4.A.Z.F 7 .                             ",
"                  > a f W -.c.m.B.k.X.Q j.;X:X%XN.h.W n z B A S A g 7                               ",
"                . 5 N &.;.e.c.N.OXh.N 5 j.;X8X*XN.k.-.*.M 3 ; ; ; :                                 ",
"              % ; x X.v.v.b.m. X@Xj.m o ~ '.;XoXk.c.b.k.^ d > O . .                                 ",
"            # 0 B O.8.f.V.B. XOX@Xj.m . e ~ ' j.k.m.N.N.h.*.E r . .                                 ",
"          . & V :.7.a.g.-X&X%X@X#Xj.l . . O e W k.N. X@X@X&Xj.n . .                                 ",
"          . & C K.H.6.#.s.%X>X>X,XoXj.I Y m N *.b.|.OX#X#X#XM.^ a 5                                 ",
"          . & U /.Q.! s q.;X9X9XrX8X4X`.Q.l.l.M. XOX@X#X#X#XXXh.X.M 1 .                             ",
"          . = ( ).E.P . U `.wXwXeXwXtXtX9X<X$X$X#X#X#X#X@X@X XN.x.Q 5 .                             ",
"            = L _ I e . t ) R.R.R.'.3XeX8X8X,X<X#X#X#X@XOX XN.b.x.W 5 .                             ",
"              6 6 = O . - 6 e e e U ~.yXqXtX9X>X$X#X#X@XN.N.c.c.b.N 5 .                             ",
"                . . . . . . . . . t T.yX3X4X=X!.z.M.XX.XN.N.b.c.x.X.f 5 1                           ",
"                  . . . . . . . . t T.3X'.' ~ U n ^ h.N.N.N.N.b.k.-.o.N d $                         ",
"                    . . . . . . . t E.3X' e . X . a X.c.N.@X.XN.x.k.x.-.n @ .                       ",
"                  % q u < O O e L / ' T.) S x h u T w.N.OX@X.XN.x.b.m.k.N $ .                       ",
"                . 7 B { j % = I T.T.I t T ..$.>.} 6.M..X@X@X.XN.x.m. Xz.E * .                       ",
"                . 7 G F.J y t ' 1XW.L X v u.d.i.5.r.z.}.|..X.XN.b.N.OX}.^ 3 &                       ",
"                . 7 G F.Z.` C.~.3XW.L X v u.p.#.Z S E Q w.M.N.|.N..XOXXXw.F g 9 . . .               ",
"                . 7 G F.J._.2X3X5XW.L X v u.p.b % @ $ 4 N -.m. X@X@X#X&XU.6.J 0 . . . .             ",
"                . ; V { K.2X5X5X5XW.L X p  . .p X @ > a W ;.b. X#X@XOX{.U.G.:.B 9 9 9 7 ,           ",
"                . # , 0 ` (.5X5X5XW.L . : p p : . 1 f o.&.e.m. X#XOX[.n.H.G.4.} H H H D u #         ",
"                . . . . P ^.3X3X3XW.L O . . . . . a %.x.x.x.m.|.@X{.m.e.y.A.Z.S.A.A.A.,.V # X       ",
"                . . . . y / T.(.3X(.C.I y - . . . r O.t.s.k.c.B.|.k.%.R K F F F F } 3.3.] v v       ",
"                    . . = 6 L T.1X3X2X^./ w . . . 0 O.7.t.k.c.c.b.&.f 2 2 , , , < Z ,.S.7.u.u.      ",
"                    % % % % e _ ^.(.(.).' y % % : j { S.6.=.=.=.=.N r : % % : : 2 A 2.L.I.d.d.      ",
"                  7 g Z Z Z Z Y ( ( / / Y D B Z Z J ,.Z.O.N f f f z B Z Z Z A K  .#.i.I.P.P.P.      ",
"                . 7 F 4.4.4.:.B = - O & V } Z.Z.Z.Z.A.4.D , @ + + h | Z.3.Z.7.a.d.d.g.d.P.D.D.      ",
"                . 7 G F.F.F.,.V # . . X g :.F.F.F.F.F.4.B % . . . h { F.F.F.L.Y.g.g.g.g.P.D.        ",
"                                                                                                    ",
"                                                                                                    ",
"                                                                                                    ",
"                                                                                                    ",
"                                                                                                    ",
"                                                                                                    ",
"                                                                                                    "
};
