/* XPM */
static char *_9eaccca8dba4a88a3d107c213d1baa04QXJHqiBB5CIo5oS[] = {
/* columns rows colors chars-per-pixel */
"50 50 217 2 ",
"   c None",
".  c #010000",
"X  c #0A0506",
"o  c #0D0907",
"O  c #0C0C0D",
"+  c #0E060B",
"@  c #130C0C",
"#  c #10070C",
"$  c #18120E",
"%  c #1E0E16",
"&  c #180D13",
"*  c #1C1410",
"=  c #161618",
"-  c #0F1011",
";  c #220F19",
":  c #210F15",
">  c #231A14",
",  c #26121C",
"<  c #2A131E",
"1  c #2A1C19",
"2  c #281715",
"3  c #3D1D1E",
"4  c #2F241F",
"5  c #32221B",
"6  c #1D1F21",
"7  c #2D1422",
"8  c #2E1D20",
"9  c #321625",
"0  c #3C1B2D",
"q  c #371A26",
"w  c #1F2124",
"e  c #27282A",
"r  c #392628",
"t  c #36383B",
"y  c #332C34",
"u  c #431E32",
"i  c #4C2426",
"p  c #412D24",
"a  c #482729",
"s  c #49352A",
"d  c #543A2E",
"f  c #4D2239",
"g  c #4A2232",
"h  c #54253E",
"j  c #572A3A",
"k  c #4D3D32",
"l  c #5A3737",
"z  c #57292E",
"x  c #602E2F",
"c  c #673637",
"v  c #76383D",
"b  c #5B4538",
"n  c #4E4138",
"m  c #664637",
"M  c #67483B",
"N  c #5E2946",
"B  c #572842",
"V  c #5A3B50",
"C  c #642C4B",
"Z  c #672E4A",
"A  c #67354A",
"S  c #6B2F50",
"D  c #6D3052",
"F  c #723255",
"G  c #763458",
"H  c #7A375D",
"J  c #7D3B46",
"K  c #3F4248",
"L  c #41444A",
"P  c #4D5158",
"I  c #57565A",
"U  c #554C52",
"Y  c #6C4749",
"T  c #724943",
"R  c #6A5243",
"E  c #7B5543",
"W  c #775646",
"Q  c #795A59",
"!  c #625E5C",
"~  c #7B604E",
"^  c #565B63",
"/  c #595B64",
"(  c #685E67",
")  c #5E646C",
"_  c #736175",
"`  c #6F6F74",
"'  c #853D56",
"]  c #833F41",
"[  c #843B63",
"{  c #893D66",
"}  c #8B3E69",
"|  c #92454A",
" . c #9D4B4E",
".. c #8A5F4B",
"X. c #865949",
"o. c #864659",
"O. c #9E4A5C",
"+. c #954A4D",
"@. c #A85058",
"#. c #BA585E",
"$. c #866350",
"%. c #976954",
"&. c #8F6B56",
"*. c #A26D59",
"=. c #A8745B",
"-. c #B0795F",
";. c #91416D",
":. c #9A4762",
">. c #994473",
",. c #9A5C78",
"<. c #8C4E65",
"1. c #A24A69",
"2. c #A64A7C",
"3. c #A84A7E",
"4. c #A44976",
"5. c #AA5A75",
"6. c #BB587B",
"7. c #B35F65",
"8. c #9E7B68",
"9. c #847A73",
"0. c #8C706D",
"q. c #A87A64",
"w. c #B87D65",
"e. c #A86276",
"r. c #BE7573",
"t. c #B16C73",
"y. c #C65E62",
"u. c #C55B77",
"i. c #CD616A",
"p. c #D66576",
"a. c #CE746D",
"s. c #E66D7A",
"d. c #E97378",
"f. c #F5757A",
"g. c #AC836A",
"h. c #A5826B",
"j. c #B88369",
"k. c #AB8875",
"l. c #B98B7C",
"z. c #C28569",
"x. c #C68A6E",
"c. c #CC856D",
"v. c #CA8E71",
"b. c #C78978",
"n. c #CC9275",
"m. c #C6967A",
"M. c #D29A7C",
"N. c #D3987B",
"B. c #DD8B79",
"V. c #747B85",
"C. c #AC4C81",
"Z. c #B14E85",
"A. c #B45185",
"S. c #BB5386",
"D. c #B55088",
"F. c #B95987",
"G. c #B96C8C",
"H. c #A97097",
"J. c #9B7392",
"K. c #C85B84",
"L. c #D46182",
"P. c #D86481",
"I. c #C57A86",
"U. c #7D848F",
"Y. c gray53",
"T. c #818994",
"R. c #89909D",
"E. c #A79399",
"W. c #BAA597",
"Q. c #949BA7",
"!. c #8F97A4",
"~. c #A997B0",
"^. c #9DA6B4",
"/. c #99A1AF",
"(. c #A4A8B9",
"). c #B3B2B2",
"_. c #A4A5A6",
"`. c #C78B84",
"'. c #D69F80",
"]. c #D89E8A",
"[. c #CDA185",
"{. c #D5A283",
"}. c #D9A485",
"|. c #DEAB8B",
" X c #D6A68B",
".X c #CEA896",
"XX c #E1AD8D",
"oX c #E9A68E",
"OX c #E5B493",
"+X c #E8B796",
"@X c #E9BA9B",
"#X c #E3B89E",
"$X c #E0AF91",
"%X c #DDB7A5",
"&X c #C8BBB5",
"*X c #EF8F83",
"=X c #CCC1BC",
"-X c #EDCBB4",
";X c #F0CFB9",
":X c #F1D2BD",
">X c #EDC6AB",
",X c #B2BDCC",
"<X c #B0B1C4",
"1X c #BAC5D6",
"2X c #C6C6C8",
"3X c #C0CBDC",
"4X c #C2C8D2",
"5X c #D2C8C2",
"6X c #ECDCD2",
"7X c #F6E5D9",
"8X c #E9E1DE",
"9X c #DFE1E7",
"0X c #E9EAEA",
"qX c #E2E6ED",
"wX c #F7EBE3",
"eX c #F7F6F6",
"rX c #CCD4E2",
/* pixels */
"                                                                                                    ",
"                                                                                                    ",
"                                                                                                    ",
"                                                                                                    ",
"                                                                                                    ",
"                                                                                                    ",
"                                  . . . . . .                         . . . .                       ",
"                                . . . . . . . .                       . . . . .                     ",
"                              2 i x x x x z g 0 <                   9 u u u u 0 ;                   ",
"                            . 3 ] y.#.#.#.1.} Z q . . . . . . . . @ f H } } } C 7 .                 ",
"                            . 3  .f.s.p.y.u.A.;.j 4 * > * * * * * , j { 4.C.D.F 7 .                 ",
"                            . 3  .f.y.| J :.3.5.<.~ R M m M M m M M c j D } D.F 7 .                 ",
"                            . 3  .f. .i < S 2.G.`.{.m.j.-.-.-.-.-.*.m 2 q G Z.F 7 .                 ",
"                            . 3 | s.O.j u N H e.`.OX}.M.n.x.z.z.z.-.X.s g A H N 7 .                 ",
"                            . 9 ' K.4.{ F B 0 Y k.+XOX|.M.n.z.z.z.j.=...T l 0 9                     ",
"                            . 7 S C.C.6.;.B & k q.OX+X@XOXn.z.j.z.z.z.j.%.d o X                     ",
"                              , u S Z S Z l d W q.}.@X-X%Xk.W $.j.N.n.z.=.E d p >                   ",
"                                ; , ; ; 8 m %.=.j.N.%X7X5X9.e M g.|.M.x.j.-.%.M 5 .                 ",
"                                . . @ > s $.j.x.x.x..X&X_.I o k h.OX}.n.v.c.c...a ; %               ",
"                                . . r R &.k.M.M.v.j.8.` I y X k h.OX$X}.N.B.d.7.o.N u @             ",
"                                . . b k.$X$XOX}.n.j.M 4 O . . n h.#X+XOXoX*Xf.p.S.>.B O .           ",
"                                5 p ~ m.+X+X+X$XM.n.8.M n U P h..X;X;X;X%Xb.@.5.G.J.V & .           ",
"                            . 1 m ..g.{.+X+X+XOXXXM.m.k.k.W.).2X6XwXwX7X&X0.a Q E.~.U & .           ",
"                            . 5 E z.N.}.OXOX+X+X@X@X#X#X-X7XeX0X0X0X0X0X).I . L T././ = .           ",
"                            . 5 E z.v.M.}.|.+X+X+X@X>X:X6X8XqX1X_.Y.Y.Y.) t . e P ) K =             ",
"                            . 5 E z.x.x.n.}.OX+X+X@X;X7X0X0XrXQ.I e e e = @ . O = 6 6               ",
"                          > 1 d ..z.x.v.n.'.|.{.m.m.W.&X2X1X1XY.t . . . . . . . . .                 ",
"                        @ s M ..*.z.v.'.}.'.M.q.$.b I ! V._.1XU.t . . . . . . . .                   ",
"                      . $ b =.j.z.z.N.|.$XM.x...p . . X e ` 1XT.K . . . . . . .                     ",
"                      . $ M j.n.x.z.N.|.OX}.M.q.Y g g z b ! U.` ^ L e O # 7 u q ;                   ",
"                      . $ M m.{.n.z.N.|.OXOX|.b.e.{ O.@. .Y t P V.U.P = % B [ N 7 .                 ",
"                      & e $.[.XXM.x.M.|.$X X[.`.e.4.6.d.i.c o K R.<XV.t y H D.F 7 .                 ",
"              . . . 7 f D 8.].OX}.M.{.M.n.q.~ R A C O.i.i.c X L R.1XQ.` _ C.D.G 7 .                 ",
"            . . . . u H 5.I.$X#XOXXX}.n.q.M 5 * @ * v i.y.x X L R.4X,X,X~.H.D.G 7 .                 ",
"          ; 9 9 9 9 N } S.I.].XXOX+X{.v.-.M s 2 o X i | | i O K R.3X3X3X<XJ.[ B % .                 ",
"        + u S H G G } 2.S.I.b.'.XX+X}.n.j.%...d 1 . 2 i a 2 . K R.3X3X3X^._ 0 7 O .                 ",
"      X @ B } D.Z.Z.C.Z.A.t.a.x.{.OX{.n.z.z.z.$.p . . . . . . K R.1X1X1X!.K . . . .                 ",
"      x v ' 3.C.} D D S D Y T $.j.{.N.x.z.r.r.o.a . . . - y P V.(.1X/.U.^ t . . . .                 ",
"      y.y.6.6.} C 7 ; < , 2 1 d &.v.x.b.j.a.6.o.q . . . 6 ^ !.<X1X,XV.V w - . .                     ",
"      d.s.L.K.1.Z 2 2 ; % % % r T *.*.%.*.5.A.} h % % % y ` /.^.^.Q.) y = % % %                     ",
"      L.L.P.P.p.@.] J S C C C C l l d d Y o.C.>.H C C C D U ^ ^ / / U A C C C f 7                   ",
"      S.S.L.s.f.d.s.p.6.2.3.C.' g o o o , Z 2.Z.C.2.C.C.;.f = O O = N ;.3.3.2.D 7 .                 ",
"        S.L.P.f.f.f.s.K.D.D.Z.[ u . . . % C 2.D.D.D.D.D.;.f + . . # B >.D.D.D.F 7 .                 ",
"                                                                                                    ",
"                                                                                                    ",
"                                                                                                    ",
"                                                                                                    ",
"                                                                                                    ",
"                                                                                                    ",
"                                                                                                    "
};
