/* XPM */
static char *_9cef334b1be4ebea8c209f8ea2fbb93cwXTCZKJ0lwzJsKz[] = {
/* columns rows colors chars-per-pixel */
"50 50 133 2 ",
"   c #656A17",
".  c #656C17",
"X  c #666D17",
"o  c #656B18",
"O  c #666B18",
"+  c #676C18",
"@  c #666D18",
"#  c #676D18",
"$  c #686D18",
"%  c #686E18",
"&  c #696F18",
"*  c #686E19",
"=  c #696F19",
"-  c #6A6F18",
";  c #6A6F19",
":  c #6B6F19",
">  c #696C1A",
",  c #686D1D",
"<  c #6B7019",
"1  c #6C7019",
"2  c #6C7119",
"3  c #6C711A",
"4  c #6D711A",
"5  c #6E721A",
"6  c #6F731A",
"7  c #70731A",
"8  c #70741A",
"9  c #71741B",
"0  c #71751B",
"q  c #72751B",
"w  c #73761B",
"e  c #70741C",
"r  c #70751D",
"t  c #73761C",
"y  c #72761D",
"u  c #73771D",
"i  c #72761E",
"p  c #73761E",
"a  c #73771E",
"s  c #73771F",
"d  c #74761C",
"f  c #74771D",
"g  c #75781D",
"h  c #74781F",
"j  c #75781F",
"k  c #76791E",
"l  c #76791F",
"z  c #79791E",
"x  c #686E20",
"c  c #696E20",
"v  c #747720",
"b  c #7C7522",
"n  c #757821",
"m  c #767920",
"M  c #777A20",
"N  c #777B20",
"B  c #777A21",
"V  c #757822",
"C  c #787B21",
"Z  c #7C7B20",
"A  c #7D7B20",
"S  c #797C21",
"D  c #797C22",
"F  c #7A7D22",
"G  c #7B7E23",
"H  c #7C7D23",
"J  c #7C7F23",
"K  c #7A7D27",
"L  c #7C7F24",
"P  c #7C7F27",
"I  c #7A7D28",
"U  c #797C2B",
"Y  c #7C7E32",
"T  c #767D44",
"R  c #887935",
"E  c #A3793C",
"W  c #A77E3D",
"Q  c #937C40",
"!  c #7D8024",
"~  c #7D8025",
"^  c #7E8125",
"/  c #7D8557",
"(  c #878124",
")  c #80832A",
"_  c #9F902F",
"`  c #818336",
"'  c #80823A",
"]  c #A38238",
"[  c #A9813D",
"{  c #A9823D",
"}  c #A88D38",
"|  c #A89533",
" . c #AC9635",
".. c #AD9836",
"X. c #AE9836",
"o. c #AC903A",
"O. c #AF913B",
"+. c #B09937",
"@. c #B5943E",
"#. c #BE9F3E",
"$. c #C0A03F",
"%. c #828956",
"&. c #858A57",
"*. c #878C55",
"=. c #B89440",
"-. c #BC9842",
";. c #A28250",
":. c #A38353",
">. c #A1875E",
",. c #90966F",
"<. c #98946E",
"1. c #9B9472",
"2. c #9B9278",
"3. c #A58A60",
"4. c #C4A440",
"5. c #989681",
"6. c #909B8E",
"7. c #A09F85",
"8. c #A2A185",
"9. c #A5A18B",
"0. c #A6A48C",
"q. c #A8A38D",
"w. c #AAA899",
"e. c #ACA99B",
"r. c #ADAA9B",
"t. c #AEAB9E",
"y. c #AEAB9F",
"u. c #9DA4A3",
"i. c #AFACA0",
"p. c #B1ABA0",
"a. c #B0ADA2",
"s. c #B2ADA4",
"d. c #B3B0A8",
/* pixels */
"q q q q q q q q q q q q q q q q q q q q q q q q q q q q q q q q q q q q q q q q q q q q q q q q q q ",
"q q q q q q q q q q q q q q q q q q q q q q q q q q q q q q q q q q q q q q q q q q q q q q q q q q ",
"q q q q q q q q q q q q q q q q q q q q q q q q q q q q q q q q q q q q q q q q q q q q q q q q q q ",
"q q q q q q q q q q q q q q q q q q q q q q q q q q q q q q q q q q q q q q q q q q q q q q q q q q ",
"q q q q q q q q q q q q g i d q q q q q q q q q q q q q q q q q q q q q q q q q q q q q q q q q q q ",
"q q q q q q q q q q q i J C N q q q q q q q q q q q q q q q q q q q q q q q q q q q q q q q q q q q ",
"q q q q q q q q q q q q q g i i q q q q q q q q q q q q q q q q q q q q q q q q q q q q q q q q q q ",
"q q q q q q q q q q q q q q - 2 q q q q q q q q q q q q q q q q q q q q q q q q q q q q q q q q q q ",
"q q q q q q q q q q q q q q q q q q q q q q q q q q q q q q q q q q q q q q q q q q q q q q q q q q ",
"q q q q q q q q q q q q q q q q q q q q q q q q q q q q q q q q q q q q q q q q q q q q q q q q q q ",
"q q q q q q q q q q q q q q q q q q q q q q q q q q q q q q q q q q q q q q q q q q q q q q q q q q ",
"q q q q q q q q q q q q q q q q q q q q q q q q q q q q q q q q q q q q q q q q q q q q q q q q q q ",
"q q q q q q q q q q q q q q q q q q q q q q q q q q q q q q q q q q q q q q q q q q q q q q q q q q ",
"q q q q q q q q q q q q q q q q q q q q q q q q q q q q q q q q q q q q q q q q q q q q q q q q q q ",
"q q q q q q q q q q q q q q q q q q q q q q q q q q q q q q q g g q q q q q q q q q q q q q q q q q ",
"q q q q q q q q q q q q q q q q q q q q q q q q q q q q q q J C d q q q q q q q q q q q q q q q q q ",
"q q q q q q q q q q q q q q q q q q q q q q q q q q i q q z F - q q q q q q q q q q q q q q q q q q ",
"q q q q q q q q q q q q q q q q q q q q q q q q q J L C q C N @ q q q q q q q q q q q q q q q q q q ",
"q q q q q q q q q q q q q q q q q q q q q q q q q i J F C @ N o q q q q q q q q q q q q q q q q q q ",
"q q q q q q q q t.a.q q q q q q q q q q q q q q q q & g C   . i q q q q q q q q q q q q q q q q q q ",
"q q q q q q q t.:.;.t.U d.0.d q q q q q q q q q q q q . . q q q q q q q q q q 9 q q i i q J d i q q ",
"q q q q q 9 v c r.t., a.3.8.i q q q q q q q q q q q q q q q q q q q q q q q d J ) K d d J d q q q q ",
"q q q q p p q.d., o N w.5.< q q q q q q q q q q q q q q q q q q q q q q q q q K ,.u.%.L ) g q q q q ",
"q q q q d d Q 7.v e e o & q q q q q q q q q q q q q q q q q q q q q q q q q d %.2.>.5.*.` d q q q q ",
"q q q q q q $ $ q q q q q q q q q q q q q q q q q q q q q q q q q q q q q q q : / 6.T <.s.' q q q q ",
"q q q q q q 9 9 q q q q q q q q q q q q q q q q q q q q q q q q q q q q q q q q : - 2 R 1.Y q q q q ",
"q q q q q q q q q q q q q q q q q q q q q q q q q q q q q q q q q q q q q q q q i 9 q : - 2 q q q q ",
"q q q q q q q q q q q q q q q q q q q q q q q q q q q q q q q q q q q q q q q q q q q q q d q q q q ",
"q q q q q q q q q q q q q q q q q q q q q q q q q q q q q q q q q q q q q q q q q q q q q q q q q q ",
"q q q q q q q q q q q q q q q q q q q q q q q q q q q q q q q q q q q q q q q q q q q q q q q q q q ",
"q q q q q q q q q q q q q q q q q q q q q q q q q q q q q q q q q q q q q q q q q q q q q q q q q q ",
"q q q q q q q q q q q q q q q q q q q q q q q q q q q q q q q q q q q q q q q q q q q q q q q q q q ",
"q q q q q q q q q q q q q q q q q q q q q q q q q q q q q q q q q q q q q q q q q q q q q q q q q q ",
"q q q q q q q q q q q q q q q q q q q q q q q q q q q q q q q q q q q q q q q q q q q q q q q q q q ",
"q q q q q q q q q q q q q q q q q q q q q q q q q q q q q q q q q q q q q q q q q q q q q q q q q q ",
"q q q q q q q q q q q q q q q q q q q q q q q q q q q q q q q q q q q q q q q q q q q q q q q q q q ",
"q q q q q q q q q q L L q 9 q q q q q q q q q q q q q q q q q q q q q q q q q q q q q q q q q q q q ",
"q q q q q q q q q i d ^ z 9 q q g F q q q q q q q q q q q q q q q q q q q q q q q q q q q q q q q q ",
"q q q q q q q q q q e C C N d C F q q q q q q q q q q q q q q q q q q q q q q q q q q q q q q q q q ",
"q q q q q q q q ^ C N - C C C d 2 q q q q q q q q q q q q q q q q q q q q q q q q q q q q q q q q q ",
"q q q q q q q q q C H -.} - N i & d q q q q q q q q q q q q q q q q q q q q q q q q q q q q q q q q ",
"q q q q q q q q q . =.E W @.v : d q q q q q q q q q q q q q q q q q q q q q q q q q q q q q q q q q ",
"q q q q q q q q z z > @.}   ( 4.| q q q q q q q q q i q q q q q q q q q q q q q q q q q q q q q q q ",
"q q q q q q i A #.$.z - - i b ] _ q q q q q d q q q d ^ g q q q q q q q q q q q q q q q q q q q q q ",
"q q q q q q q  .{ { +.q q q 2 o - q q q q q g C g i g ^ - i q q q q q q q q q q q q q q q q q q q q ",
"q q q q q q q -  . .> q q q q d q q q q q i 2 i N d N N q q q q q q q q q q q q q q q q q q q q q q ",
"q q q q q q q q & . q q q q q q q q q q q q q & i C i - q q q q q q q q q q q q q q q q q q q q q q ",
"q q q q q q q q q q q q q q q q q q q q q q i 2 e C : e q q q q q q q q q q q q q q q q q q q q q q ",
"q q q q q q q q q q q q q q q q q q q q q q q q 2 d q q q q q q q q q q q q q q q q q q q q q q q q ",
"q q q q q q q q q q q q q q q q q q q q q q q q q q q q q q q q q q q q q q q q q q q q q q q q q q "
};
