/* XPM */
static char *_7c58ea0c75846f2ee3a4830e56b30b5VS8oGD8934ZTTDCw[] = {
/* columns rows colors chars-per-pixel */
"50 50 212 2 ",
"   c None",
".  c black",
"X  c #010101",
"o  c #1B1B1B",
"O  c gray11",
"+  c gray26",
"@  c #555555",
"#  c #565656",
"$  c gray34",
"%  c #E50101",
"&  c #E60202",
"*  c #E40404",
"=  c #E40504",
"-  c #E50505",
";  c #E40604",
":  c #E60604",
">  c #E40606",
",  c #E40706",
"<  c #E40707",
"1  c #E70706",
"2  c #E70707",
"3  c #E80606",
"4  c #E70909",
"5  c #E50F08",
"6  c #E40E09",
"7  c #E50F0E",
"8  c #EA0A09",
"9  c #EB0A0A",
"0  c #EB0B0A",
"q  c #EC0C0B",
"w  c #EA0D0C",
"e  c #EC0C0C",
"r  c #EC0D0C",
"t  c #ED0D0C",
"y  c #EE0E0D",
"u  c #EF0F0F",
"i  c #E51109",
"p  c #E5110F",
"a  c #EF100F",
"s  c #E4180D",
"d  c #E51110",
"f  c #E51111",
"g  c #E31716",
"h  c #EB1212",
"j  c #EF1010",
"k  c #E41911",
"l  c #E71C11",
"z  c #E41B14",
"x  c #E81E13",
"c  c #E11D1C",
"v  c #E11D1D",
"b  c #E31C1C",
"n  c #E11E1E",
"m  c #E51F1E",
"M  c #F01110",
"N  c #F11212",
"B  c #F11312",
"V  c #F11413",
"C  c #F31515",
"Z  c #F31615",
"A  c #F41515",
"S  c #F41717",
"D  c #F41817",
"F  c #F51817",
"G  c #F21919",
"H  c #F51818",
"J  c #F51A19",
"K  c #F61B1A",
"L  c #F71B1A",
"P  c #F71C1B",
"I  c #F81C1C",
"U  c #F81D1C",
"Y  c #F91D1C",
"T  c #F91D1D",
"R  c #F91E1D",
"E  c #F91F1E",
"W  c #F91F1F",
"Q  c #FA1F1E",
"!  c #E52214",
"~  c #E52414",
"^  c #E52616",
"/  c #E42717",
"(  c #E6201F",
")  c #E52B1C",
"_  c #ED2C1E",
"`  c #ED2D1F",
"'  c #EE2C1E",
"]  c #F9201E",
"[  c #F9201F",
"{  c #F9211F",
"}  c #FA201F",
"|  c #FA211F",
" . c #F9221F",
".. c #F8231F",
"X. c #E5311B",
"o. c #E5311C",
"O. c #E5321C",
"+. c #E4331E",
"@. c #E5331E",
"#. c #E7321E",
"$. c #E4341D",
"%. c #E8311E",
"&. c #E8311F",
"*. c #E12120",
"=. c #E72524",
"-. c #E72726",
";. c #E62727",
":. c #EF2020",
">. c #E82626",
",. c #EF2726",
"<. c #E52821",
"1. c #E52A23",
"2. c #E42D20",
"3. c #EB2E2E",
"4. c #F02121",
"5. c #F02524",
"6. c #FA2020",
"7. c #FA2120",
"8. c #FA2322",
"9. c #FA2323",
"0. c #FB2323",
"q. c #FA2424",
"w. c #FA2524",
"e. c #FA2525",
"r. c #F92727",
"t. c #F72D2D",
"y. c #F92D2C",
"u. c #F82E2D",
"i. c #F92F2F",
"p. c #E53923",
"a. c #E53A23",
"s. c #E53A24",
"d. c #E53C27",
"f. c #E63D27",
"g. c #E63E29",
"h. c #E53A2C",
"j. c #E73C2D",
"k. c #F8302F",
"l. c #E53131",
"z. c #EF3131",
"x. c #EC3434",
"c. c #E53E37",
"v. c #E63B3B",
"b. c #E63C3C",
"n. c #EA3E3D",
"m. c #F73333",
"M. c #F63736",
"N. c #F83332",
"B. c #F43938",
"V. c #F53939",
"C. c #F53A3A",
"Z. c #F63A3A",
"A. c #F73C3C",
"S. c #F83938",
"D. c #F83A39",
"F. c #E3402A",
"G. c #E5402A",
"H. c #E6412B",
"J. c #E64242",
"K. c #E74343",
"L. c #EB4140",
"P. c #E94747",
"I. c #EF4544",
"U. c #E64C4C",
"Y. c #E94F4E",
"T. c #F84140",
"R. c #F84241",
"E. c #F84342",
"W. c #F54948",
"Q. c #F64B4B",
"!. c #F44F4E",
"~. c #E65947",
"^. c #E85A47",
"/. c #E45252",
"(. c #E55454",
"). c #E95151",
"_. c #E55857",
"`. c #E65E5E",
"'. c #EB5959",
"]. c #EA5C5C",
"[. c #F55150",
"{. c #F55353",
"}. c #F65252",
"|. c #F45555",
" X c #F65554",
".X c #F65655",
"XX c #F45656",
"oX c #F95151",
"OX c #F85352",
"+X c #E96554",
"@X c #EB6A6A",
"#X c #EA6C6C",
"$X c #F76262",
"%X c #F66464",
"&X c #F06968",
"*X c #F36A6A",
"=X c #F56868",
"-X c #E87978",
";X c #EC7D7D",
":X c #F37B7B",
">X c #F67978",
",X c #F37C7C",
"<X c #EC887C",
"1X c #EA8181",
"2X c #EA8484",
"3X c #EE8989",
"4X c #ED8D8D",
"5X c #F18383",
"6X c #FA8D8D",
"7X c #F39292",
"8X c #F99595",
"9X c #F99797",
/* pixels */
"                                                                                                    ",
"                                                                                                    ",
"                                                                                                    ",
"                                                                                                    ",
"                                                                                                    ",
"                                                                                                    ",
"                                                                                                    ",
"                                                                                                    ",
"                                                                                                    ",
"          ].              m.                                              g               &X        ",
"        (.Y.              w.                                              =               $X        ",
"        P.L.              w.                                              w               oXXX      ",
"      m C } 6.          u 6.6.                                          8 Q }           1 D } D.    ",
"      ( A } } A.6X  ;.G P } }                                           0 Q } i.R.  -X>.P } } S.    ",
"      m A } } } oX  u L 6.} }                                           0 } } } 6.  I.B } } } D.    ",
"      ).5.L } } } } } } } 6.E.                                          3.L Q } } } 6.Q } } k.%X    ",
"        U.u Q W } } } } 6.w.            O O $           @ O O             4 L Q 6.} } } } }         ",
"        /.8 Q Q } } } } } w.            . . +           + . .             = C 6.} } } } } 6.        ",
"        4Xb.G Q } } } } N.=X            @ @               @ @             '.,.P } } } } w.OX        ",
"            p Q } } } }                                                     K.j } } } } i.          ",
"              c a } 6.5X                *.z.&X          _.=.B.                ;X= Q 6.m.            ",
"              c u Q w.7X                = D XX          K.8 6.                3X* Q 6.Z.            ",
"              c u } 0.9X                = L }.          b.q }                 2X* I Q B.            ",
"              c u } 8.8X          ;.& & 7.7.Q Q } } } } } } } } } R.          1X= Q W B.            ",
"              c y | 7.}.          :.B B } } } } } } } } } } } } } y.          !.B Q 7.B.            ",
"                x.D | | Q.    @X8 Q Q } } } } } } } } } } } } } } } } >X    Q.} 6.7.                ",
"                  = } } } } } } 6.} } } } } } } } } } } } } } } } } } } } } } } } Q                 ",
"                  ~ 0 Z } } } } } } } } } } } } } } } } } } } } } } } } } } } } Q u                 ",
"              G.^.      Z } } } } } } } } } } } } } } } } } } } } } } } 6.6.}       c.2.            ",
"            G.f.<X      h } } } } } } } } } } } } } } } } } } } } } } } } 6.w.      #Xp g.          ",
"          1.+.            } ` &.&.} } } } } } } } } } } } } } } } P 3 x ` }             6 j.        ",
"        (.i X.            ` #.      XX} } } } } } } } } } } } } XX      l `             * ^         ",
"        /.i +.            #.f.      :Xt.t.t.t.t.t.t.t.t.t.t.t.t.,X      z +.            = ^         ",
"        `.k X.          +.p.                                              = /           = )         ",
"            f.          s s.                                              < ^           7           ",
"            G.          i p.                                              = ^           f           ",
"            ~.          1.p.                                              = h.          l.          ",
"                          p.                                              =                         ",
"                          s.                                              4                         ",
"                          +X                                              b.                        ",
"                                                                                                    ",
"                                                                                                    ",
"                                                                                                    ",
"                                                                                                    ",
"                                                                                                    ",
"                                                                                                    ",
"                                                                                                    ",
"                                                                                                    ",
"                                                                                                    ",
"                                                                                                    "
};
