/* XPM */
static char *a3536c2fed83445585da052afcd666e85FntWMRc1gLJlHER[] = {
/* columns rows colors chars-per-pixel */
"50 50 164 2 ",
"   c #666145",
".  c #6A6446",
"X  c #6B6549",
"o  c #6E694C",
"O  c #726B4B",
"+  c #756E51",
"@  c #757153",
"#  c #837E5C",
"$  c #86815F",
"%  c #878160",
"&  c #8C8664",
"*  c #8F8865",
"=  c #8B8768",
"-  c #8F8A68",
";  c #908967",
":  c #918C6B",
">  c #95906E",
",  c #918D71",
"<  c #949075",
"1  c #999476",
"2  c #9B967A",
"3  c #9C987A",
"4  c #A49D7B",
"5  c #A7A17A",
"6  c #A9A27C",
"7  c #9D9980",
"8  c #A29E83",
"9  c #A6A286",
"0  c #ACA681",
"q  c #AEA985",
"w  c #A5A289",
"e  c #ACA98E",
"r  c #B0AC87",
"t  c #B1AD8A",
"y  c #B5B08E",
"u  c #B7B290",
"i  c #B6B291",
"p  c #B7B291",
"a  c #B6B290",
"s  c #B6B192",
"d  c #B7B193",
"f  c #B6B292",
"g  c #B7B292",
"h  c #B7B293",
"j  c #B7B393",
"k  c #B6B191",
"l  c #B7B394",
"z  c #B7B395",
"x  c #B6B291",
"c  c #B8B393",
"v  c #B8B493",
"b  c #B8B394",
"n  c #B9B394",
"m  c #B8B295",
"M  c #B8B494",
"N  c #B9B494",
"B  c #B8B495",
"V  c #B9B495",
"C  c #B9B595",
"Z  c #BAB595",
"A  c #B9B695",
"S  c #B8B496",
"D  c #B9B496",
"F  c #B9B596",
"G  c #BAB596",
"H  c #BAB597",
"J  c #B9B696",
"K  c #B9B697",
"L  c #BAB696",
"P  c #BAB697",
"I  c #BBB697",
"U  c #BAB797",
"Y  c #BAB597",
"T  c #B7B498",
"R  c #BAB698",
"E  c #BBB698",
"W  c #BBB798",
"Q  c #BBB699",
"!  c #BAB799",
"~  c #BBB799",
"^  c #BCB799",
"/  c #BBB798",
"(  c #BBB898",
")  c #BBB899",
"_  c #BCB898",
"`  c #BCB899",
"'  c #BCB89A",
"]  c #BCB99A",
"[  c #BDB99A",
"{  c #BCB89B",
"}  c #BDB89B",
"|  c #BDB99B",
" . c #BDB99C",
".. c #BDB99D",
"X. c #BDBA9D",
"o. c #BEBA9C",
"O. c #BEBB9C",
"+. c #BEBA9D",
"@. c #BFBA9D",
"#. c #BEBB9D",
"$. c #BFBA9E",
"%. c #BFBB9F",
"&. c #BFBC9D",
"*. c #BFBC9F",
"=. c #BEB99C",
"-. c #BFBCA0",
";. c #BFBDA0",
":. c #BFBCA3",
">. c #C0BC9F",
",. c #C1BC9F",
"<. c #C0BC9F",
"1. c #C0BBA0",
"2. c #C0BBA1",
"3. c #C0BCA0",
"4. c #C1BDA0",
"5. c #C1BCA1",
"6. c #C1BDA1",
"7. c #C1BDA2",
"8. c #C2BDA2",
"9. c #C2BDA3",
"0. c #C1BEA2",
"q. c #C1BEA3",
"w. c #C2BEA2",
"e. c #C3BEA2",
"r. c #C2BEA3",
"t. c #C3BEA3",
"y. c #C2BFA3",
"u. c #C3BFA3",
"i. c #C2BEA4",
"p. c #C2BFA4",
"a. c #C3BFA4",
"s. c #C3BFA5",
"d. c #C2BEA3",
"f. c #C1C0A3",
"g. c #C2C0A3",
"h. c #C4C0A3",
"j. c #C1C0A4",
"k. c #C1C0A5",
"l. c #C2C0A4",
"z. c #C3C0A4",
"x. c #C2C0A5",
"c. c #C3C0A5",
"v. c #C3C0A6",
"b. c #C2C1A6",
"n. c #C3C1A6",
"m. c #C4C0A4",
"M. c #C4C0A5",
"N. c #C5C1A6",
"B. c #C4C1A7",
"V. c #C4C2A7",
"C. c #C3C0A5",
"Z. c #C4C2A8",
"A. c #C6C3AA",
"S. c #C7C5AC",
"D. c #C9C6AE",
"F. c #CAC7B0",
"G. c #CAC8B1",
"H. c #CBC8B1",
"J. c #CAC8B2",
"K. c #CBC8B2",
"L. c #CBC9B2",
"P. c #CBC9B3",
"I. c #CBCAB2",
"U. c #CBC8B1",
/* pixels */
"                                                                                                    ",
"o < < , < < < < < , < , # = < , < < < < < , < < , = % # , < < < < , % % , < < , < < < < < = # # # # ",
"@ I.I.J.J.J.P.P.I.J.I.V.6 d J.I.P.I.P.P.I.J.J.P.A.d q 0 J.I.P.P.I.J.q q S.J.J.I.J.I.P.P.H.n 4 4 4 5 ",
"@ V.t 0 i.b.b.b.x.x.x.x.-.7.7.0 0 6 d | ~ | ^ ^ ~ L n L L { { { { ~ n L ~ | L _ y 0 ~ x.h.>.,.:.y 5 ",
"+ V.k t 7.i.x.x.i.x.x.7.x.a.i.t q 4 k H H d t } { { =.=.{ =.=.=.=.=.| | =.~ L L d 0 L -.-.-.5.L y r ",
"@ a.7.7.i.i.u.x.i.i.i.V.a.a.i.5.| 6 t H H t 6 ~ g.j.i.i.7.g.7.i.i.i.i.7.7.} ~ L L L L ~ L ~ L 0 t ,.",
"@ x.d t ~ | | =.=.=.=.=.=.=.} =.L t n H H k t ~ S r d =.=.=.=.=.} =.! =.=.^ L *.=.:.=.=.*.~ L 6 r u.",
"@ V.t q L ^ ^ ^ ^ ^ ^ ^ ^ ~ H H L L ~ H H d d H y 0 k n ~ L L ~ H H ~ L d n L *.i.7.7.7.7.=.L 0 t u.",
"@ a.5.<.7.u.7.7.u.a.7.u.7.<.L H H H H H ~ t 6 k L d n ~ n H H H ~ n ~ d 0 t L { ~ ^ ^ L ~ ~ L n ^ 5.",
"@ V.a.i.i.i.a.L L =.=.5.5.^ n ~ H H H H n y t d L L L ~ ~ H H H L L n d 6 0 t { =.=.=.<.=.=.=.t I u.",
"+ V.a.a.5.5.a.q r ^ L n I n I I H H ~ H L L L ~ L n n d d n d L L L L y 0 6 q { 7.V.V.a.a.a.V.0 t u.",
"@ V.a.u.q n a.} =.7.t q n I I I H H n ~ n ~ L L n ~ t 0 0 q t t t t 0 r t d d S =.u.a.u.a.a.x.=.5.u.",
"@ V.x.h.6 t <.5.5.5.t 6 n n u u d d L S A v v L d d q 6 6 q r r q t 6 6 d n L v L <.5.:.| 7.7.>.5.u.",
"@ u.7.V.6 0 r r t q 6 6 4 6 6 6 6 q t q r r r q 0 5 q t e r r r r r 6 6 q r r r r r r r 5 d h.6 t 7.",
"O t | 7.0 0 r r q r q 0 5 5 5 6 q q q t r r y 6 6 5 6 6 0 6 6 0 0 r q q q r r r r r r r q n a.I } 7.",
"O 6 I a.6 q t t t r t 0 5 5 6 r r q y q r r q 6 5 5 6 5 6 6 6 5 0 q r r r r r r r r r r r L 7.7.u.u.",
"O 6 ^ a.u.7.i.q 6 4 0 t q r r r r r r r r r t q r r r r r r t r t r r r r r r r r r r r 4 6 6 6 6 5 ",
"O 6 L a.a.a.a.H t 0 q q t r r r r r r r r r 0 0 6 0 0 6 0 6 6 0 0 r r r r r r r r r d L d d y 6 0 d ",
"O 6 I a.7.a.a.a.| r t t r r r r r r r r q 6 6 5 6 6 6 6 6 6 6 6 0 r r r q r r r r t | g.a.V.a.6 t 7.",
"O 6 I a.q 0 0 0 6 6 6 6 r r r r y >.;.;.*.d q q q r q q q 0 r r t <.=.5.-.*.*.*.>.>.7.7.y y y ^ 5.u.",
"O 6 L 7.t t t 6 6 4 6 6 r r r r y ( ( O.g.{ y v d d t r r r q y I a.<.I | ^ ^ ^ _ _ ^ I r r r ^ =.x.",
"O 5 L 7.u.7.u.0 6 6 r t t t t t y q t y -.g.g.7.g.u.v r r 6 6 f.u.a.y t t t t t t t t t t t t t d 7.",
"+ I >.u.u.| n r 0 r y <.| | } =.A q t t y v v d y y t r r q q f.V.7.| | ^ ^ } } | | | ^ ^ ^ | ^ v t ",
"@ V.a.a.u.<.t y y t | ,.a.i.i.i.*.y q q q q q q q r r 0 r r q O.=.<.u.a.a.u.i.i.u.u.u.u.a.a.a.a.L 6 ",
"+ V.b.A.i.i.i.7.i.:.x.V.a.V.A.i.a.7.r 4 6 4 6 4 6 6 5 6 q q 6 r t t :.i.a.V.b.A.i.A.i.A.a.a.V.a.d 6 ",
"O 3 3 3 3 3 3 3 2 2 3 3 3 3 2 2 3 3 ; * * & * & & & * * : = * : : : 1 2 3 3 2 2 3 2 3 3 3 3 3 3 < * ",
"o o o o o X o o o o o o o o o o O o o o O X o X . . . o o o o o o o o o o o o o o o o o o o o o o o ",
"i.:.:.:.9.H e t d :.i.i.i.:.i.:.9.:.9.9.9.e.:.k 1 . 3 i.:.:.:.-.:.9.9.9.i.:.:.i.i.:.:.:.:.i.i.i.-.:.",
"S.D.D.F.J.a.} } 7.D.F.F.F.F.F.F.J.J.J.J.J.J.D.<.4 X 8 D.J.J.J.J.F.F.F.F.D.D.D.D.J.S.s.a.J.D.F.F.D.S.",
"n L 5.a.a.a.a.a.a.a.a.a.a.a.a.a.i.i.a.7.a.a.u.a.9   2 n n =.i.7.a.a.a.a.a.<.L L n H q 0 u.a.a.a.-.~ ",
"L ~ 5.u.a.a.a.a.u.a.u.u.a.a.u.a.a.a.a.7.^ ^ | | 8   8 A.L =.a.a.u.a.u.u.a.u.7.7.7.5.} ^ u.u.u.V.i.7.",
"~ n 5.7.u.7.u.a.7.u.7.u.7.u.7.u.7.u.7.u.~ L L ^ 3 . w D.~ <.a.7.7.u.7.u.5.u.7.7.7.i.i.i.u.7.7.i.7.7.",
"n H Q ^ ~ ~ ~ ~ ~ S ~ T ~ ~ ~ T ~ ~ ~ ~ ~ n ~ n 4 X 8 J.7.a.a.^ ~ ~ ~ ~ ^ I ^ ~ ~ L I I ~ ~ ~ ~ ~ L ",
"~ H ~ n H H d ~ ~ L H H L L L L H H } =.:.=.<.i.w X w J.=.| =.L ~ =.<.=.=.<.=.>.=.<.<.| q y L L ~ L ",
"H H H H H H L L L H H H H H ~ n H H i.i.i.i.g.D.e X w S.L L L L | 7.i.a.7.u.u.u.a.a.a.7.6 t n ~ L L ",
"H H H H L L ~ ( L H H H H ~ n ~ H H ~ ! ~ t q V.e X w S.t d n I ~ ^ ^ | | _ | _ | ^ | L k d H H L I ",
"t d y v y v y y d v d y k d d { | L ~ n ^ t r V.e   w F.q d | =.| =.| <.| | | | | | | | t t t t t t ",
"6 t e t r r y r q t q r q t t -.7.L n ~ I L I S.e X w S.q S u.V.V.7.7.V.h.h.V.h.V.a.V.-.4 6 6 6 5 5 ",
"q q t q r r r r q y q y L | } d v y t y t t r V.e X 8 F.e v x.7.| t d v v d v v n n n d 0 q q q 6 6 ",
"q t q t r r r r q y y v 7.x.i.y t q t r t 0 6 x.e X 7 A.r d >.<.n 6 q r r r q q q q q q t q r r q 6 ",
"r r r r r t r r v g.h.n.n.h.g.g.{ 6 q r r r t A.e . > q r r r r r r r r r 6 6 6 5 5 6 r r r r r q t ",
"r r r r 0 0 6 r y ( ( A A A v ( v 0 q q r q r x.e . 3 { r r r r r r r r r q 0 0 q 6 r r q 6 q r t t ",
"r r r r 6 6 5 q q r r r r r r r r r r r r 0 0 x.e X w D.r t t t t t t r t r r r r r r r 6 5 5 r t q ",
"r r r r r r r r q e r r r r r r r r r t g.x.x.D.e X 9 D.V.x.h.h.x.x.g.O.y r r r r r r r r r r r q t ",
"q r r r r r r r r r t r r r r r t d y d | =.=.S.e X 7 i.,.<._ _ | | | ( t r r r r 0 r 6 6 0 r 0 0 q ",
"6 r t r r r r r r r r r r r r r y 7.g.-.t t t A.e   > t r t r r r r r t r r r r 0 6 6 4 6 6 6 4 6 6 ",
"4 6 6 6 6 6 6 ~ <.=.:.=.7.=.>.*.*.x.S t t t t S.e . * 0 t t t t r r r r r r t I <.<.<.| <.<.<.<.=.=.",
"0 r 0 0 q 0 q =.7.-.*.*.*.7.h.x.i.g.v y y t t b.e   * 6 6 r r 6 q t q r 0 r t <.u.u.u.u.,.u.u.,.x.x.",
",.u.-.-.-.-.*.f.] y e r y A f.h.g.h.7.g.-.v t A.e   * 5 6 5 6 5 6 t t q 6 6 0 { i.x.x.x.x.x.j.x.g.x.",
"D.D.S.D.F.F.F.{ y q r r q y v A _ S.D.S.D.{ r S 4 . * 6 4 5 5 5 q *.g.7.=.=.:.b.S.S.S.S.F.S.F.S.S.S."
};
